HIERARCHY
ROOT Hips
{
	OFFSET 0.000000 0.000000 0.000000
	CHANNELS 6 Xposition Yposition Zposition Xrotation Yrotation Zrotation
	JOINT LeftUpLeg_virtual
	{
		OFFSET 0.000000 0.000000 0.000000
		CHANNELS 3 Xrotation Yrotation Zrotation
		JOINT LeftUpLeg
		{
			OFFSET 13.026900 -6.336304 -1.092800
			CHANNELS 3 Xrotation Yrotation Zrotation
			JOINT LeftLeg
			{
				OFFSET 0.524474 -46.096886 9.782700
				CHANNELS 3 Xrotation Yrotation Zrotation
				JOINT LeftFoot
				{
					OFFSET -0.524474 -53.427422 -12.948200
					CHANNELS 3 Xrotation Yrotation Zrotation
					JOINT LeftToeBase
					{
						OFFSET 0.192200 -14.009700 16.364100
						CHANNELS 3 Xrotation Yrotation Zrotation
						JOINT LeftToe_End
						{
							OFFSET -1.784700 -0.561700 9.474800
							CHANNELS 3 Xrotation Yrotation Zrotation
							End Site
							{
								OFFSET 0 0 0
							}
						}
					}
				}
			}
		}
	}
	JOINT RightUpLeg_virtual
	{
		OFFSET 0.000000 0.000000 0.000000
		CHANNELS 3 Xrotation Yrotation Zrotation
		JOINT RightUpLeg
		{
			OFFSET -12.883000 -6.336304 -1.092800
			CHANNELS 3 Xrotation Yrotation Zrotation
			JOINT RightLeg
			{
				OFFSET -0.524587 -46.096825 9.782800
				CHANNELS 3 Xrotation Yrotation Zrotation
				JOINT RightFoot
				{
					OFFSET 0.524587 -53.427383 -12.948300
					CHANNELS 3 Xrotation Yrotation Zrotation
					JOINT RightToeBase
					{
						OFFSET -0.192200 -14.009700 16.364100
						CHANNELS 3 Xrotation Yrotation Zrotation
						JOINT RightToe_End
						{
							OFFSET 1.784700 -0.561700 9.474800
							CHANNELS 3 Xrotation Yrotation Zrotation
							End Site
							{
								OFFSET 0 0 0
							}
						}
					}
				}
			}
		}
	}
	JOINT Spine_virtual
	{
		OFFSET 0.000000 0.000000 0.000000
		CHANNELS 3 Xrotation Yrotation Zrotation
		JOINT Spine
		{
			OFFSET 0.072000 7.257294 -0.789700
			CHANNELS 3 Xrotation Yrotation Zrotation
			JOINT Spine1
			{
				OFFSET 0.000000 12.508769 -0.658067
				CHANNELS 3 Xrotation Yrotation Zrotation
				JOINT Spine1_split
				{
					OFFSET 0.000000 12.508769 -0.658067
					CHANNELS 3 Xrotation Yrotation Zrotation
					JOINT Spine2
					{
						OFFSET 0.000000 12.508769 -0.658067
						CHANNELS 3 Xrotation Yrotation Zrotation
						JOINT Neck_virtual
						{
							OFFSET 0.000000 0.000000 0.000000
							CHANNELS 3 Xrotation Yrotation Zrotation
							JOINT Neck
							{
								OFFSET 0.000000 14.033295 7.520400
								CHANNELS 3 Xrotation Yrotation Zrotation
								JOINT Head
								{
									OFFSET 0.000000 8.198502 5.703100
									CHANNELS 3 Xrotation Yrotation Zrotation
									JOINT HeadTop_End
									{
										OFFSET 0.000000 17.760803 13.332701
										CHANNELS 3 Xrotation Yrotation Zrotation
										End Site
										{
											OFFSET 0 0 0
										}
									}
								}
							}
						}
						JOINT LeftShoulder_virtual
						{
							OFFSET 0.000000 0.000000 0.000000
							CHANNELS 3 Xrotation Yrotation Zrotation
							JOINT LeftShoulder
							{
								OFFSET 6.292450 5.785301 -0.669000
								CHANNELS 3 Xrotation Yrotation Zrotation
								JOINT LeftShoulder_split
								{
									OFFSET 6.292450 5.785301 -0.669000
									CHANNELS 3 Xrotation Yrotation Zrotation
									JOINT LeftArm
									{
										OFFSET 13.907140 -6.093903 1.965100
										CHANNELS 3 Xrotation Yrotation Zrotation
										JOINT LeftForeArm
										{
											OFFSET 34.140198 0.000000 0.000000
											CHANNELS 3 Xrotation Yrotation Zrotation
											JOINT LeftHand
											{
												OFFSET 40.960209 0.000000 0.000000
												CHANNELS 3 Xrotation Yrotation Zrotation
												End Site
												{
													OFFSET 0 0 0
												}
											}
										}
									}
								}
							}
						}
						JOINT RightShoulder_virtual
						{
							OFFSET 0.000000 0.000000 0.000000
							CHANNELS 3 Xrotation Yrotation Zrotation
							JOINT RightShoulder
							{
								OFFSET -6.292450 5.785301 -0.669000
								CHANNELS 3 Xrotation Yrotation Zrotation
								JOINT RightShoulder_split
								{
									OFFSET -6.292450 5.785301 -0.669000
									CHANNELS 3 Xrotation Yrotation Zrotation
									JOINT RightArm
									{
										OFFSET -13.907140 -6.093903 1.965100
										CHANNELS 3 Xrotation Yrotation Zrotation
										JOINT RightForeArm
										{
											OFFSET -34.140198 0.000000 0.000000
											CHANNELS 3 Xrotation Yrotation Zrotation
											JOINT RightHand
											{
												OFFSET -40.960209 0.000000 0.000000
												CHANNELS 3 Xrotation Yrotation Zrotation
												End Site
												{
													OFFSET 0 0 0
												}
											}
										}
									}
								}
							}
						}
					}
				}
			}
		}
	}
}
MOTION
Frames: 10
Frame Time: 0.03333333
4.136221 117.703857 -10.007267 0.000000 0.000000 0.000000 -3.450990 20.323069 0.825356 -20.420015 16.432595 12.556691 19.049971 3.500373 4.538650 3.023870 -9.958492 -16.464185 -3.527348 -1.894614 0.936313 0.000000 0.000000 0.000000 -2.862567 20.564153 0.628683 7.682762 -11.164918 4.432422 9.865269 -1.085175 -2.583818 -14.765747 -20.560048 12.016430 1.498958 0.578441 -9.781943 0.000000 0.000000 0.000000 -3.363013 21.488004 0.229964 3.144202 -2.491382 4.285559 -2.112740 0.316277 3.387362 0.087097 -0.128770 -0.067825 0.000000 0.000000 0.000000 -0.527740 3.294384 3.006410 20.245637 0.505117 1.344392 -3.300640 -23.797759 -13.472804 0.000000 0.000000 0.000000 -2.009481 1.441951 2.392579 -0.908239 -19.448108 -14.097978 1.611011 0.259473 -5.133598 11.626185 -1.916363 -66.550604 3.824851 -7.313950 3.989700 0.000000 0.000000 0.000000 -0.995511 1.817879 3.231872 2.959447 2.257709 17.293913 -4.389506 1.399705 -0.144595 23.586115 8.897706 55.538689 -2.604747 -3.767942 -0.643271 0.000000 0.000000 0.000000 
4.158009 117.794029 -9.985081 0.000000 0.000000 0.000000 -3.102516 19.697813 0.674725 -20.344314 16.723985 12.669353 18.721357 3.449135 4.325444 2.832287 -9.299850 -16.407127 -3.267245 -1.918968 1.003485 0.000000 0.000000 0.000000 -2.527630 19.948503 0.475892 7.121358 -11.169375 4.281286 9.716592 -1.053642 -2.542624 -14.266173 -19.908168 12.106115 1.160312 0.581697 -9.679341 0.000000 0.000000 0.000000 -2.904888 20.952100 0.034723 3.175785 -2.725760 4.400018 -2.249877 0.241620 3.383737 0.084573 -0.145438 -0.061787 0.000000 0.000000 0.000000 -0.609364 3.227139 3.011330 20.091451 0.518528 1.149422 -3.465657 -22.387410 -13.877784 0.000000 0.000000 0.000000 -2.148424 1.394044 2.365434 -0.941111 -19.683360 -14.416386 1.841083 0.262375 -4.826207 12.296607 -0.522527 -66.973263 3.816054 -7.798734 3.842999 0.000000 0.000000 0.000000 -1.019112 1.754144 3.235161 3.088933 1.546043 17.293820 -4.962993 1.425213 -0.143867 25.659238 9.072629 54.290254 -2.967969 -4.081721 -0.197952 0.000000 0.000000 0.000000 
4.164776 117.862724 -10.021168 0.000000 0.000000 0.000000 -2.765408 18.910567 0.467903 -20.226618 16.983212 12.830205 18.453423 3.408819 4.118045 2.630614 -8.478980 -16.436922 -3.135375 -1.944729 1.040413 0.000000 0.000000 0.000000 -2.211848 19.178193 0.270030 6.543331 -11.198594 4.127472 9.566722 -1.020069 -2.474449 -13.872643 -19.083513 12.075794 0.936236 0.575386 -9.541220 0.000000 0.000000 0.000000 -2.471716 20.245336 -0.212784 3.241816 -2.889173 4.521288 -2.317504 0.204075 3.395260 0.087601 -0.134919 -0.056503 0.000000 0.000000 0.000000 -0.655156 3.182668 3.039834 19.813221 0.551738 0.900128 -3.733550 -21.115209 -14.250616 0.000000 0.000000 0.000000 -2.222493 1.373801 2.349302 -0.943182 -19.837936 -14.620894 1.920111 0.266279 -4.552727 12.766255 0.438000 -67.524732 3.856857 -8.142464 3.771827 0.000000 0.000000 0.000000 -0.984050 1.739888 3.260938 3.152433 1.254862 17.334262 -5.617198 1.329315 -0.153761 26.261797 8.604922 53.249172 -3.318588 -4.920733 0.289457 0.000000 0.000000 0.000000 
4.159999 117.924072 -10.116177 0.000000 0.000000 0.000000 -2.435168 18.046106 0.224743 -20.079805 17.148964 12.997354 18.242993 3.370067 3.943067 2.440585 -7.551845 -16.544031 -3.159078 -1.970098 1.027404 0.000000 0.000000 0.000000 -1.933712 18.316740 0.034205 5.963254 -11.251224 3.971820 9.389931 -1.008103 -2.387149 -13.568511 -18.114625 11.922341 0.846409 0.552140 -9.359263 0.000000 0.000000 0.000000 -2.082647 19.409948 -0.485933 3.330184 -2.976631 4.632073 -2.317802 0.197772 3.398386 0.095568 -0.105417 -0.053937 0.000000 0.000000 0.000000 -0.671100 3.161660 3.067954 19.412678 0.630754 0.675560 -4.015360 -19.933659 -14.581701 0.000000 0.000000 0.000000 -2.228843 1.376011 2.317118 -0.908778 -19.911490 -14.699202 1.849693 0.245154 -4.326416 13.105382 0.801360 -68.089848 3.903366 -8.256975 3.747979 0.000000 0.000000 0.000000 -0.909111 1.770117 3.285638 3.138850 1.364247 17.449134 -6.066740 1.213771 -0.194374 25.482036 7.678453 52.519749 -3.581691 -5.951956 0.750532 0.000000 0.000000 0.000000 
4.157842 118.009094 -10.254658 0.000000 0.000000 0.000000 -2.114862 17.164662 -0.033271 -19.872236 17.208643 13.114999 18.030492 3.336804 3.814563 2.279566 -6.572817 -16.695472 -3.290079 -1.993349 0.955024 0.000000 0.000000 0.000000 -1.679134 17.394419 -0.207216 5.381474 -11.307419 3.804903 9.142196 -1.002692 -2.286515 -13.257452 -17.025010 11.743828 0.755158 0.516860 -9.130263 0.000000 0.000000 0.000000 -1.753268 18.497226 -0.754154 3.419660 -3.007378 4.718765 -2.260218 0.206367 3.370474 0.103476 -0.083525 -0.057738 0.000000 0.000000 0.000000 -0.666889 3.149890 3.067527 18.924316 0.764864 0.555846 -4.188837 -18.848759 -14.859527 0.000000 0.000000 0.000000 -2.170881 1.386182 2.248024 -0.830185 -19.889588 -14.635782 1.685408 0.159268 -4.146930 13.337449 0.553496 -68.576547 3.870380 -8.156839 3.728000 0.000000 0.000000 0.000000 -0.799305 1.824437 3.276707 3.047817 1.760289 17.608117 -6.119297 1.157054 -0.301106 23.739501 6.686755 52.109972 -3.741319 -6.702855 1.139819 0.000000 0.000000 0.000000 
4.162019 118.134277 -10.446980 0.000000 0.000000 0.000000 -1.789843 16.311306 -0.278006 -19.616191 17.185005 13.166078 17.764881 3.315612 3.727514 2.157780 -5.582374 -16.864248 -3.423995 -2.012445 0.822539 0.000000 0.000000 0.000000 -1.431423 16.444512 -0.434242 4.816205 -11.353132 3.618788 8.791593 -1.001390 -2.182017 -12.845396 -15.846961 11.609910 0.542859 0.475997 -8.852037 0.000000 0.000000 0.000000 -1.461989 17.539885 -0.991681 3.488568 -3.006282 4.778049 -2.164234 0.204689 3.301631 0.103366 -0.072978 -0.063249 0.000000 0.000000 0.000000 -0.649550 3.131690 3.019820 18.383770 0.976446 0.553711 -4.205593 -17.872532 -15.058100 0.000000 0.000000 0.000000 -2.062711 1.390320 2.135705 -0.718377 -19.755076 -14.456206 1.485667 0.053731 -3.999063 13.502718 -0.171533 -68.926383 3.714482 -7.972671 3.688726 0.000000 0.000000 0.000000 -0.667243 1.873479 3.214774 2.883734 2.360007 17.758155 -5.742415 1.256676 -0.478930 21.555353 6.136841 51.975646 -3.791994 -6.815933 1.428508 0.000000 0.000000 0.000000 
4.169201 118.309959 -10.665249 0.000000 0.000000 0.000000 -1.469739 15.492008 -0.491761 -19.319986 17.125043 13.155344 17.399207 3.299596 3.673667 2.107132 -4.635607 -17.031724 -3.529347 -2.029007 0.663943 0.000000 0.000000 0.000000 -1.176476 15.520778 -0.634066 4.305589 -11.371328 3.427626 8.333674 -1.027939 -2.081362 -12.348744 -14.639998 11.479551 0.265932 0.425945 -8.525032 0.000000 0.000000 0.000000 -1.195677 16.603700 -1.195586 3.523779 -2.999795 4.801805 -2.044070 0.182271 3.194423 0.104467 -0.084001 -0.067102 0.000000 0.000000 0.000000 -0.617790 3.097573 2.932602 17.798990 1.268007 0.664182 -4.071311 -17.020780 -15.157134 0.000000 0.000000 0.000000 -1.926183 1.377580 1.989842 -0.584850 -19.529266 -14.200593 1.290791 -0.085718 -3.870896 13.641045 -1.212811 -69.124622 3.411769 -7.861158 3.620561 0.000000 0.000000 0.000000 -0.515390 1.897475 3.108393 2.660387 3.092281 17.842720 -5.145685 1.405751 -0.637024 19.331693 6.425002 52.056014 -3.760889 -6.284390 1.620679 0.000000 0.000000 0.000000 
4.187003 118.530670 -10.915989 0.000000 0.000000 0.000000 -1.169905 14.714126 -0.671942 -18.990880 17.087059 13.100108 16.923853 3.294305 3.643955 2.140834 -3.766308 -17.165975 -3.597511 -2.049506 0.517402 0.000000 0.000000 0.000000 -0.918762 14.657627 -0.807204 3.859732 -11.372215 3.234342 7.754350 -1.108559 -1.984310 -11.815894 -13.463344 11.297222 0.009942 0.366203 -8.159798 0.000000 0.000000 0.000000 -0.927835 15.727801 -1.368499 3.533768 -3.001187 4.792056 -1.901597 0.140672 3.070387 0.107302 -0.100261 -0.062492 0.000000 0.000000 0.000000 -0.575219 3.047130 2.824309 17.156122 1.613447 0.840520 -3.850770 -16.363562 -15.153823 0.000000 0.000000 0.000000 -1.767380 1.348212 1.837637 -0.446847 -19.232131 -13.934407 1.091084 -0.250066 -3.768549 13.713364 -2.437785 -69.214091 2.998615 -7.841828 3.542732 0.000000 0.000000 0.000000 -0.337519 1.895766 2.979857 2.402800 3.902982 17.823730 -4.513795 1.526474 -0.729595 17.318136 7.552760 52.369823 -3.731990 -5.235025 1.725669 0.000000 0.000000 0.000000 
4.216995 118.780388 -11.168888 0.000000 0.000000 0.000000 -0.902131 13.979691 -0.823228 -18.669303 17.116208 13.029494 16.377796 3.303213 3.629073 2.250897 -2.996431 -17.232422 -3.612131 -2.076981 0.396616 0.000000 0.000000 0.000000 -0.683362 13.897569 -0.957910 3.466153 -11.372957 3.041068 7.137228 -1.254259 -1.888450 -11.241556 -12.373440 11.069023 -0.238768 0.305161 -7.778569 0.000000 0.000000 0.000000 -0.656851 14.948581 -1.513696 3.535290 -3.003471 4.752627 -1.739800 0.091876 2.951021 0.109448 -0.107187 -0.059296 0.000000 0.000000 0.000000 -0.516690 2.994100 2.722200 16.425075 1.975596 1.025365 -3.669908 -15.962384 -15.053406 0.000000 0.000000 0.000000 -1.602334 1.313713 1.704141 -0.332541 -18.924711 -13.728817 0.905099 -0.435386 -3.699490 13.667468 -3.801329 -69.226904 2.562759 -7.859771 3.496713 0.000000 0.000000 0.000000 -0.137487 1.882812 2.858175 2.131663 4.805195 17.696721 -4.115543 1.471027 -0.693530 15.569800 9.395867 52.847404 -3.761596 -3.982069 1.770970 0.000000 0.000000 0.000000 
4.261959 119.044510 -11.422146 0.000000 0.000000 0.000000 -0.671196 13.272120 -0.963441 -18.363189 17.234490 12.961707 15.793677 3.322842 3.630663 2.413035 -2.346233 -17.217565 -3.603466 -2.113525 0.324360 0.000000 0.000000 0.000000 -0.468899 13.217753 -1.099989 3.085097 -11.379371 2.843120 6.543822 -1.449184 -1.787885 -10.558744 -11.390186 10.869302 -0.510967 0.249810 -7.410852 0.000000 0.000000 0.000000 -0.385556 14.287275 -1.647342 3.535958 -2.990262 4.686178 -1.553331 0.062388 2.849504 0.111249 -0.112927 -0.061076 0.000000 0.000000 0.000000 -0.434202 2.956908 2.649399 15.581338 2.309917 1.184187 -3.618672 -15.906107 -14.869501 0.000000 0.000000 0.000000 -1.429754 1.293474 1.605959 -0.253657 -18.644989 -13.618911 0.700071 -0.626948 -3.672471 13.443011 -5.361441 -69.174428 2.174818 -7.787846 3.516230 0.000000 0.000000 0.000000 0.083516 1.880161 2.762918 1.864635 5.786570 17.469204 -3.998826 1.245560 -0.486574 14.012299 11.710673 53.466267 -3.918887 -2.694598 1.806598 0.000000 0.000000 0.000000 
